<svg viewBox="0 0 183 180" fill="none" xmlns="http://www.w3.org/2000/svg" class="FEIuWc" aria-hidden="true"><path d="M16.0176 36.903H98.4913L128.65 139.523H46.1759L16.0176 36.903Z" fill="#dfe7f6" class="VnOHwf-Ysl7Fe"></path><path d="M69.2514 158.381L31.9989 157.755C32.0529 157.832 36.979 160.931 36.979 160.931L33.992 163.309L36.906 165.175L31.8339 169.415L69.0748 170.106C71.1984 166.495 71.306 162.054 69.2514 158.381Z" fill="#386bc0" class="VnOHwf-Wvd9Cc"></path><path d="M52.6248 165.885C58.6873 165.994 63.6207 165.041 63.6439 163.755C63.6672 162.469 58.7714 161.338 52.709 161.228C46.6465 161.118 41.7131 162.072 41.6898 163.358C41.6666 164.644 46.5623 165.775 52.6248 165.885Z" fill="#dfe7f6" class="VnOHwf-Ysl7Fe"></path><path d="M27.7161 160.581C29.4738 162.107 29.393 164.863 27.5854 166.301L22.0928 164.116C21.5262 163.881 21.5223 163.137 22.1043 162.902L27.7161 160.581Z" fill="#606266"></path><path d="M32.5304 158.187L22.1432 163.449L32.6467 169.018" stroke="#606266" stroke-width="2" stroke-linecap="round" stroke-linejoin="round"></path><path d="M21.2159 170.042L42.9918 170.015L63.5624 170.32M71.7874 159.707C72.3077 160.587 73.3447 162.752 73.3294 164.371C73.3141 165.989 72.6037 167.846 72.1926 168.9M72.5968 160.863L76.8937 161.206C78.4269 161.329 79.6192 162.591 79.6542 164.128L79.6718 164.898C79.7122 166.67 78.2155 168.09 76.4479 167.958L73.0791 167.705" stroke="#606266" stroke-width="2" stroke-linecap="round"></path><path d="M11.1567 23.5608L14.85 37.7402C23.4677 27.8763 17.2096 23.3553 11.1567 23.5608ZM11.1567 23.5608H95.7949C101.335 25.7186 103.489 32.5 97.6415 37.7403M11.1567 23.5608C-3.61656 23.8691 7.53124 62.1453 9.00216 74.4218C11.7721 97.5404 4.38553 112.336 1 114.494H27.102" stroke="#5F6368" stroke-width="2" stroke-linecap="round" stroke-linejoin="round"></path><path d="M13.5146 38.5717L40.2126 139.523" stroke="#fff" stroke-width="2" stroke-linecap="round" stroke-linejoin="round"></path><path d="M9.34326 41.9089L32.704 134.518" stroke="#5F6368" stroke-width="2" stroke-linecap="round" stroke-linejoin="round"></path><path d="M15.1831 36.903H97.78" stroke="#5F6368" stroke-width="2" stroke-linecap="round"></path><path d="M30.2007 53.5892H91.9397" stroke="#5F6368" stroke-width="2" stroke-linecap="round"></path><path d="M35.2065 64.4353H96.9456" stroke="#5F6368" stroke-width="2" stroke-linecap="round"></path><g clip-path="url(#clip0)"><path d="M113.481 103.57L106.261 114.428L111.51 117.919L118.73 107.06L113.481 103.57Z" fill="#386bc0" class="VnOHwf-Wvd9Cc"></path><path d="M147.473 134.039C145.488 137.024 141.444 137.749 138.562 135.609L110.753 115.263L115.955 107.441L145.474 125.214C148.561 127.045 149.457 131.054 147.473 134.039Z" fill="#386bc0" class="VnOHwf-Wvd9Cc"></path><path d="M105.033 80.8959C114.577 87.2424 117.169 100.125 110.823 109.669C104.476 119.213 91.5942 121.806 82.0498 115.459C72.5055 109.112 69.9131 96.2304 76.2597 86.686C82.6062 77.1417 95.4883 74.5493 105.033 80.8959Z" fill="white" stroke="#5F6368" stroke-width="2"></path><path d="M101.44 86.2992C108 90.6614 109.782 99.5157 105.42 106.076C101.057 112.636 92.2031 114.418 85.643 110.056C79.0829 105.693 77.3011 96.8391 81.6633 90.279C86.0254 83.7189 94.8797 81.9371 101.44 86.2992Z" fill="white" stroke="#5F6368" stroke-width="2"></path><path d="M111.343 118.99L119.086 107.346" stroke="white" stroke-width="2" stroke-linecap="round"></path><path d="M87.8085 100.717L92.8897 93.0758" stroke="#5F6368" stroke-width="2" stroke-linecap="round"></path><path d="M89.4507 105.745L98.6454 91.9177" stroke="#5F6368" stroke-width="2" stroke-linecap="round"></path></g><g clip-path="url(#clip1)"><path d="M158.027 87.1432L121.018 76.4181C119.636 76.0176 118.873 74.6311 119.273 73.2491L139.789 2.45699C140.189 1.07493 141.576 0.311518 142.958 0.71204L179.966 11.4371C181.348 11.8377 182.112 13.2241 181.711 14.6062L161.196 85.3982C160.795 86.7803 159.409 87.5437 158.027 87.1432Z" fill="white"></path><path d="M175.453 20.1169L142.438 10.5488L126.639 65.0633L159.655 74.6314L175.453 20.1169Z" fill="#5F6368"></path><path d="M144.588 78.0883L137.217 75.9521C136.602 75.7741 136.221 75.0809 136.399 74.4667C136.577 73.8524 137.27 73.4707 137.884 73.6487L145.255 75.7848C145.869 75.9628 146.251 76.6561 146.073 77.2703C145.972 77.9068 145.279 78.2885 144.588 78.0883Z" fill="#808285"></path><path d="M159.637 13.2361C160.655 13.5311 161.719 12.9451 162.014 11.9274C162.309 10.9097 161.723 9.84557 160.706 9.55063C159.688 9.25569 158.624 9.84163 158.329 10.8593C158.034 11.8771 158.62 12.9412 159.637 13.2361Z" fill="#808285"></path></g><rect x="141.183" y="1.23883" width="41.6473" height="76.821" rx="3" transform="rotate(16.1617 141.183 1.23883)" stroke="#5F6368" stroke-width="2" stroke-linecap="round" stroke-linejoin="round"></rect><defs><clipPath id="clip0"><rect width="43.5069" height="86.5194" fill="white" transform="translate(63.3818 104.247) rotate(-56.378)"></rect></clipPath><clipPath id="clip1"></clipPath></defs></svg>