<svg viewBox="0 0 241 197" fill="none" xmlns="http://www.w3.org/2000/svg" class="FEIuWc" aria-hidden="true"><g clip-path="url(#clip0)"><path d="M135.955 119.58H77.1425L63.3613 141.773L139.643 125.518L135.955 119.58Z" fill="#5F6368"></path><path d="M139.644 125.518L63.3617 141.773L61.9059 144.206C60.159 147.029 62.8764 150.241 66.9525 150.241H146.34C150.416 150.241 153.134 147.029 151.387 144.206L139.644 125.518Z" fill="#DADCE0"></path></g><path d="M180.379 1.09863H33.1241C27.1072 1.09863 22.2295 5.97898 22.2295 11.9992V108.593C22.2295 114.614 27.1072 119.494 33.1241 119.494H180.379C186.396 119.494 191.274 114.614 191.274 108.593V11.9992C191.274 5.97898 186.396 1.09863 180.379 1.09863Z" fill="white" stroke="#5F6368" stroke-width="2" stroke-miterlimit="10" stroke-linecap="round"></path><path d="M175.133 12.3828H38.8074C35.5785 12.3828 32.9609 15.0018 32.9609 18.2325V102.362C32.9609 105.592 35.5785 108.211 38.8074 108.211H175.133C178.362 108.211 180.979 105.592 180.979 102.362V18.2325C180.979 15.0018 178.362 12.3828 175.133 12.3828Z" stroke="#5F6368" stroke-width="2" stroke-miterlimit="10" stroke-linecap="round"></path><path d="M117.526 5.22559H95.815C94.9695 5.22559 94.2842 5.91132 94.2842 6.75722C94.2842 7.60312 94.9695 8.28886 95.815 8.28886H117.526C118.372 8.28886 119.057 7.60312 119.057 6.75722C119.057 5.91132 118.372 5.22559 117.526 5.22559Z" fill="#5F6368"></path><path d="M60.6253 168.762L20.7199 168.092C20.7778 168.174 26.0546 171.494 26.0546 171.494L22.8549 174.041L25.9765 176.04L20.5432 180.582L60.4361 181.322C62.7109 177.453 62.8262 172.697 60.6253 168.762Z" fill="#386bc0" class="VnOHwf-Wvd9Cc"></path><path d="M42.8141 176.8C49.3083 176.917 54.593 175.896 54.6179 174.518C54.6428 173.14 49.3985 171.929 42.9043 171.811C36.4101 171.694 31.1253 172.715 31.1004 174.093C31.0755 175.47 36.3199 176.682 42.8141 176.8Z" fill="#DFE7F6" class="VnOHwf-Ysl7Fe"></path><path d="M16.1325 171.118C18.0153 172.753 17.9288 175.705 15.9925 177.245L10.1087 174.905C9.50177 174.653 9.4976 173.856 10.121 173.604L16.1325 171.118Z" fill="#5F6368"></path><path d="M21.2897 168.554L10.1628 174.19L21.4143 180.156" stroke="#5F6368" stroke-width="2" stroke-linecap="round" stroke-linejoin="round"></path><path d="M9.1693 181.254L32.496 181.225L54.5314 181.552M63.3421 170.183C63.8996 171.126 65.0104 173.445 64.994 175.179C64.9776 176.913 64.2166 178.902 63.7763 180.03M64.2092 171.421L69.0043 171.804C70.5375 171.927 71.7298 173.189 71.7648 174.726L71.7934 175.979C71.8338 177.751 70.3371 179.171 68.5695 179.039L64.7258 178.75" stroke="#5F6368" stroke-width="2" stroke-linecap="round"></path><path d="M131.625 41.1803C132.005 41.0542 132.423 41.1665 132.688 41.4659L155.342 67.0135C155.922 67.6668 155.444 68.6967 154.571 68.6767L61.4039 66.5411C60.2822 66.5154 60.0469 64.9459 61.1117 64.5923L131.625 41.1803Z" fill="#DFE7F6" class="VnOHwf-Ysl7Fe"></path><path d="M61.3299 65.512L141.349 52.0293" stroke="#5F6368" stroke-width="2" stroke-miterlimit="10" stroke-linecap="round"></path><path d="M60.8648 65.5118L155.482 68.1357" stroke="#5F6368" stroke-width="2" stroke-miterlimit="10" stroke-linecap="round"></path><path d="M143.521 68.3778L138.779 86.07C138.624 86.645 138.005 86.9589 137.45 86.743L87.1305 67.1712" fill="#DFE7F6" class="VnOHwf-Ysl7Fe"></path><path d="M101.434 72.8842L141.732 74.8043L143.567 68.2992L84.5604 66.4407L101.434 72.8842Z" fill="#5F6368"></path><path d="M153.308 180.902H197.767" stroke="#5F6368" stroke-width="2" stroke-linecap="round"></path><path d="M209.258 180.903H176.311C172.935 180.903 170.172 178.147 170.172 174.779V143.343H215.398V174.779C215.398 178.147 212.635 180.903 209.258 180.903Z" stroke="#5F6368" stroke-width="2" stroke-miterlimit="10"></path><path d="M215.398 144.109L170.172 159.44V144.109H215.398Z" fill="#5F6368"></path><path d="M208.497 127.411C208.497 117.603 201.821 109.614 193.55 109.614C185.279 109.614 178.603 117.603 178.603 127.411C178.603 129.534 178.901 131.456 179.499 133.377H207.601C208.199 131.456 208.497 129.433 208.497 127.411Z" fill="#DFE7F6" class="VnOHwf-Ysl7Fe"></path><path d="M191.196 109.614C189.835 112.092 186.542 117.791 185.257 123.365C184.366 127.231 184.886 131.666 184.886 134.143M197.505 109.614C198.866 112.587 200.994 115.561 202.331 122.251C203.444 127.825 203.073 131.418 203.073 134.143" stroke="white" stroke-width="2" stroke-linecap="round"></path><path d="M215.398 144.109H170.172V140.307C170.172 136.917 172.935 134.144 176.311 134.144H209.258C212.635 134.144 215.398 136.917 215.398 140.307V144.109V144.109Z" stroke="#5F6368" stroke-width="2" stroke-miterlimit="10"></path><path d="M193.69 108.082V111.404M205.643 113.249L204.194 115.463M208.54 118.785L206.367 121M209.265 124.321L206.367 126.905M199.123 123.583L196.587 125.798M193.69 120.261L191.517 118.047M190.792 126.905L188.257 125.798M186.083 113.249L184.997 111.404M182.461 116.571L180.288 115.463M180.288 122.476L176.304 121M179.926 128.012H177.028" stroke="#5F6368" stroke-width="2" stroke-linecap="round"></path><defs><clipPath id="clip0"><rect width="90.4514" height="30.6615" fill="white" transform="translate(61.3232 119.58)"></rect></clipPath></defs></svg>